<?xml version="1.0" standalone="no"?>
<!DOCTYPE svg PUBLIC "-//W3C//DTD SVG 20010904//EN"
 "http://www.w3.org/TR/2001/REC-SVG-20010904/DTD/svg10.dtd">
<svg version="1.0" xmlns="http://www.w3.org/2000/svg"
 width="584.000000pt" height="350.000000pt" viewBox="0 0 584.000000 350.000000"
 preserveAspectRatio="xMidYMid meet">

<g transform="translate(0.000000,350.000000) scale(0.100000,-0.100000)"
fill="#000000" stroke="none">
<path d="M3636 3354 c-86 -95 -195 -134 -431 -154 -231 -20 -315 -31 -372 -51
-139 -48 -238 -138 -307 -282 -41 -85 -94 -252 -83 -263 2 -3 17 16 31 41 39
65 136 166 228 235 136 103 342 188 473 195 l70 5 -55 -13 c-215 -51 -400
-157 -557 -320 -146 -151 -240 -298 -281 -442 -29 -100 -34 -148 -18 -170 12
-17 14 -14 21 36 13 94 53 203 105 282 49 76 49 76 121 98 69 21 82 22 263 13
346 -15 415 -7 548 63 199 105 328 350 328 625 0 75 -16 159 -29 157 -3 -1
-28 -26 -55 -55z"/>
<path d="M4780 3260 c-66 -12 -125 -35 -173 -69 -51 -35 -103 -89 -94 -97 3
-3 45 -19 94 -36 107 -35 258 -119 356 -197 68 -54 141 -130 133 -138 -2 -2
-41 24 -87 57 -104 75 -275 161 -394 196 -79 24 -108 27 -235 28 -155 1 -278
-16 -287 -41 -3 -7 -4 -16 -1 -18 2 -2 44 5 93 16 87 20 237 31 250 18 3 -4 1
-34 -4 -68 -13 -78 0 -155 37 -235 42 -88 166 -206 218 -206 11 0 25 -5 32
-12 16 -16 15 -8 -3 35 -8 20 -15 39 -15 43 0 3 25 -16 55 -44 35 -32 81 -61
129 -81 89 -37 180 -62 184 -50 2 4 -4 22 -13 39 -9 18 -14 34 -12 36 3 3 22
-7 42 -21 56 -38 158 -66 265 -72 l94 -6 -27 32 c-31 38 -37 67 -9 56 75 -33
125 -44 195 -45 l78 0 -7 38 c-11 60 -52 132 -112 194 l-56 59 44 -7 44 -7
-23 32 c-47 65 -134 152 -192 190 -57 37 -59 39 -35 45 35 9 33 26 -6 62 -82
76 -185 141 -283 179 -16 6 -12 10 25 20 l45 11 -44 23 c-82 42 -200 59 -301
41z"/>
<path d="M867 3169 c-74 -11 -189 -66 -244 -117 -52 -48 -56 -66 -12 -50 53
18 222 4 314 -27 82 -27 175 -73 175 -85 0 -4 -53 6 -117 22 -202 50 -380 40
-585 -35 -84 -30 -188 -97 -209 -134 -17 -29 -33 -83 -25 -83 2 0 42 26 87 57
73 50 241 133 270 133 5 0 15 -15 21 -32 7 -18 31 -72 55 -120 56 -112 130
-182 259 -243 160 -77 221 -90 434 -90 148 0 199 4 254 19 154 41 261 99 344
185 55 58 111 147 86 137 -89 -34 -163 -28 -270 23 -70 33 -128 77 -249 185
-49 45 -101 91 -115 104 -14 12 -30 22 -37 22 -7 0 -16 6 -20 13 -11 19 -91
72 -136 90 -35 15 -170 38 -205 36 -9 -1 -43 -5 -75 -10z"/>
<path d="M4200 2096 c-51 -13 -107 -45 -134 -75 -17 -19 -17 -20 36 -47 76
-39 155 -94 213 -150 92 -89 91 -98 -2 -28 -105 80 -210 135 -303 159 -73 19
-228 26 -232 10 -2 -6 36 -11 97 -13 128 -3 130 -4 111 -41 -28 -54 -38 -120
-26 -178 10 -45 14 -52 26 -42 11 9 14 7 14 -10 0 -11 8 -29 18 -39 9 -10 30
-37 45 -60 15 -24 32 -40 36 -37 5 2 21 -11 36 -31 15 -19 32 -33 38 -31 6 2
27 -7 45 -20 19 -12 38 -20 43 -17 5 2 22 -2 38 -11 16 -8 36 -12 43 -10 8 3
32 -2 53 -11 25 -10 41 -12 43 -6 2 7 16 5 39 -4 29 -12 37 -13 44 -3 6 10 13
10 35 0 22 -10 29 -10 35 1 7 10 11 10 21 0 14 -14 42 -17 33 -3 -3 6 17 7 50
4 30 -3 55 -3 55 1 0 4 -11 29 -25 56 -20 40 -22 50 -10 50 20 0 19 4 -10 50
-20 32 -22 39 -9 42 13 2 12 8 -7 32 -15 19 -19 31 -11 34 7 2 3 16 -13 42
-17 27 -21 40 -12 44 7 3 -3 18 -27 40 -30 28 -35 36 -21 36 16 0 13 6 -15 35
-19 19 -28 35 -20 35 20 0 -18 38 -60 61 -24 12 -29 18 -16 19 28 0 3 26 -40
40 -33 11 -47 30 -21 30 29 1 -20 19 -80 30 -34 7 -60 16 -57 21 7 12 -42 10
-96 -5z"/>
<path d="M1230 2086 c-25 -6 -54 -17 -65 -23 -22 -13 -25 -11 50 -34 77 -23
284 -134 272 -145 -2 -2 -35 11 -73 30 -38 19 -109 47 -159 62 -82 25 -105 28
-252 28 -117 1 -165 -2 -174 -11 -22 -22 3 -36 37 -23 16 7 71 14 122 17 l93
6 -8 -29 c-12 -43 -6 -133 12 -181 23 -59 118 -145 192 -173 32 -12 123 -33
202 -46 170 -29 240 -57 292 -116 26 -30 41 -40 54 -34 16 6 17 17 12 119 -3
61 -12 135 -21 163 -38 122 -184 293 -300 349 -107 53 -197 66 -286 41z"/>
<path d="M2680 2036 c-94 -25 -161 -85 -200 -178 l-23 -56 -83 -22 c-45 -12
-85 -28 -88 -36 -7 -19 7 -18 83 6 110 35 246 53 346 46 147 -10 169 -24 40
-26 -98 -1 -276 -27 -292 -43 -3 -3 4 -37 16 -75 17 -55 29 -77 65 -110 81
-75 157 -97 305 -90 109 6 210 39 320 106 80 48 201 158 201 182 0 33 -198
198 -303 252 -103 52 -282 73 -387 44z"/>
<path d="M1380 1477 c0 -8 -14 -41 -30 -75 -65 -129 -220 -227 -560 -356 -208
-79 -275 -112 -289 -142 -6 -13 -26 -30 -44 -38 -43 -18 -80 -66 -102 -134
-26 -79 -18 -229 17 -302 l25 -55 13 45 c29 105 103 198 219 274 68 45 384
209 376 195 -3 -4 -87 -58 -187 -121 -216 -135 -288 -200 -342 -309 -45 -94
-65 -171 -73 -283 -5 -74 -4 -88 8 -84 18 6 26 36 36 133 9 92 9 92 106 56
160 -59 344 -45 482 36 18 11 17 13 -17 51 -44 48 -63 78 -73 112 -7 21 -1 19
34 -18 40 -41 109 -81 139 -82 25 0 134 114 174 183 23 37 39 69 37 71 -2 1
-32 13 -67 26 -40 14 -73 35 -92 57 -41 46 -38 59 8 31 30 -18 51 -23 109 -23
87 0 95 6 129 99 25 69 53 250 41 262 -3 4 -24 -1 -47 -10 -41 -16 -140 -22
-140 -8 0 4 21 16 47 26 48 20 116 75 134 107 13 24 -14 203 -37 253 -18 36
-34 47 -34 23z"/>
<path d="M4720 1346 c-237 -50 -408 -190 -493 -404 -29 -71 -31 -87 -32 -197
0 -96 4 -128 18 -160 l19 -40 21 39 c125 221 251 345 450 446 118 60 164 67
59 10 -159 -87 -248 -168 -337 -304 -97 -149 -135 -308 -115 -473 14 -116 19
-132 40 -143 29 -15 29 -14 10 48 -18 57 -25 122 -21 197 2 62 9 67 66 49 77
-24 226 -22 296 5 85 32 129 69 242 203 195 233 244 277 355 318 88 33 182 28
286 -15 15 -7 12 6 -20 66 -54 105 -172 221 -277 273 -124 61 -232 87 -377 92
-82 2 -147 -1 -190 -10z"/>
<path d="M2453 1100 c-209 -55 -338 -182 -371 -365 -10 -51 -16 -137 -13 -170
1 -5 18 7 39 27 163 157 417 188 719 89 210 -70 267 -91 277 -102 14 -13 -11
-8 -178 42 -130 39 -295 69 -379 69 -176 0 -387 -98 -497 -232 -70 -84 -84
-109 -69 -119 22 -14 25 -12 73 55 123 172 302 259 536 259 92 -1 125 -6 265
-43 243 -65 287 -72 440 -74 119 -1 150 2 210 21 123 39 229 121 288 224 27
47 62 147 54 155 -2 2 -27 -7 -54 -21 -88 -43 -165 -58 -272 -50 -126 8 -175
23 -351 105 -264 122 -366 150 -538 149 -71 0 -131 -6 -179 -19z"/>
</g>
</svg>
